<?xml version="1.0" encoding="UTF-8"?>
<svg width="126.2205px" height="47.305px" viewBox="0 0 126.2205 47.305" version="1.1" xmlns="http://www.w3.org/2000/svg" xmlns:xlink="http://www.w3.org/1999/xlink">
    <title>KIER-logo-col</title>
    <g id="Designs" stroke="none" stroke-width="1" fill="none" fill-rule="evenodd">
        <g id="Homepage" transform="translate(-75, -94)">
            <g id="KIER-logo-col" transform="translate(75, 94)">
                <path d="M105.4825,31.9945 L105.4825,19.6135 C105.4825,17.6785 105.2845,16.0625 103.0665,15.5885 C102.5905,15.5885 102.0855,15.3695 102.0855,14.8315 C102.0855,13.9875 103.1505,14.1595 103.6945,14.1595 C105.4885,14.4155 107.3415,14.4055 109.1475,14.3385 C110.8935,14.2735 112.6355,14.1255 114.3835,14.1255 C117.0005,14.1255 119.0575,14.6975 120.5485,15.8405 C122.0445,16.9845 122.7905,18.5535 122.7905,20.5435 C122.7905,22.3825 122.0005,24.3055 120.2125,25.0615 C119.4965,25.3565 118.6065,25.5305 117.9205,25.8735 C117.6635,26.0075 117.7465,26.1715 117.8695,26.3845 C119.0145,28.4515 120.4435,30.4285 121.7205,32.4205 C122.6335,33.8445 123.2835,34.7305 123.6765,35.0885 C124.0685,35.4415 124.4835,35.6205 124.9095,35.6205 C125.1485,35.6205 125.3445,35.5305 125.5705,35.4975 C125.9685,35.4425 126.2205,35.7155 126.2205,36.0975 C126.2205,36.5905 125.8065,37.0335 124.9815,37.4205 C124.1525,37.8075 123.1765,38.0035 122.0505,38.0035 C120.8565,38.0035 119.8315,37.6385 118.9625,36.9105 C118.0995,36.1815 117.0845,34.7355 115.9245,32.5665 C115.2985,31.2035 113.3525,26.8045 111.9675,26.8045 C110.9625,26.8045 110.6225,27.1835 110.6225,28.1835 L110.6225,33.0925 C110.6225,34.2715 110.7335,35.1815 111.7545,35.8845 C112.3665,36.2885 113.4385,36.2705 113.9625,36.7145 C114.4725,37.1285 114.0655,38.0035 113.4465,38.0035 C113.0045,38.0035 112.5375,37.9495 112.1015,37.8745 C110.7005,37.7235 109.4785,37.6445 108.4365,37.6445 C107.2025,37.6445 105.9625,37.7255 104.7425,37.9085 C104.1635,37.9725 102.8195,38.2795 102.8195,37.2965 C102.8195,36.5335 104.4195,36.1255 104.8765,35.5545 C105.5985,34.6295 105.4825,33.0765 105.4825,31.9945 M110.6225,18.0995 L110.6225,24.3555 C110.6225,25.4615 111.7135,25.3245 112.5445,25.3245 C114.2315,25.3245 115.4645,24.9605 116.2495,24.2315 C118.0425,22.5555 117.7115,18.7315 116.1485,17.0235 C115.3025,16.0985 114.1645,15.6395 112.7405,15.6395 C111.0685,15.6395 110.6225,16.5425 110.6225,18.0995 M85.0575,31.9895 L85.0575,19.6075 C85.0575,17.6315 84.8135,16.0445 82.5625,15.5715 C82.2645,15.4965 81.9915,15.5125 81.7895,15.2355 C81.5965,14.9395 81.6175,14.5605 81.8965,14.3215 C82.1975,14.0835 82.5895,14.1095 82.9445,14.1595 C84.3055,14.3065 85.6775,14.3725 87.0465,14.3725 C90.7125,14.3725 94.2885,14.2655 97.7695,14.0475 C98.5185,13.9495 99.4855,13.8055 99.5915,14.8155 C99.5915,16.2465 99.8185,17.6985 99.8885,19.1315 C99.9025,19.4275 99.8375,19.6295 99.7425,19.7305 C99.5425,19.9415 98.9795,19.9635 98.7845,19.7305 C98.4985,19.3875 98.5175,18.6115 98.3755,18.1955 C98.1005,17.3435 97.5845,16.7485 96.8335,16.4125 C96.0765,16.0825 94.7315,15.9135 92.7925,15.9135 C91.5985,15.9135 90.8705,16.0425 90.6005,16.3055 C90.3315,16.5695 90.1975,17.2315 90.1975,18.2965 L90.1975,22.7805 C90.1975,23.4915 90.2985,23.9185 90.4945,24.0635 C90.6905,24.2145 91.3245,24.2875 92.3945,24.2875 C94.1405,24.2875 95.4475,23.6895 96.0265,21.9225 C96.1485,21.5995 96.3325,21.1205 96.7605,21.1205 C97.2585,21.1205 97.4055,21.4405 97.4055,21.8945 C97.4055,22.0795 97.3885,22.3935 97.3545,22.8415 C97.2185,24.0615 97.2595,25.3395 97.3265,26.5355 C97.3825,27.2275 97.5675,27.9585 97.5675,28.6545 C97.5675,28.9175 97.5285,29.1025 97.4445,29.2035 C97.2615,29.4345 96.7485,29.4045 96.5475,29.2145 C96.2575,28.9075 96.3095,28.0455 96.1215,27.6225 C95.3615,26.0155 93.6245,25.9295 92.0525,25.9295 C91.2845,25.9295 90.7855,26.0475 90.5505,26.2835 C90.3155,26.5185 90.1975,27.1745 90.1975,28.2445 L90.1975,32.7625 C90.1975,34.4905 90.1435,35.8505 92.1865,35.8505 C94.8615,35.8505 97.5065,35.1185 99.3615,33.0925 C99.7855,32.6445 99.9765,31.9075 100.4045,31.5235 C100.6515,31.3015 101.0595,31.3475 101.2615,31.6085 C101.6555,32.1195 101.3415,33.2355 101.1835,33.7715 C100.4955,36.1205 98.9565,37.9355 96.4075,37.9355 C95.4025,37.9355 94.3955,37.8425 93.3925,37.7905 C90.4025,37.6495 87.4755,37.5635 84.4965,37.8915 C84.0245,37.9355 83.5485,38.0035 83.0735,38.0035 C82.4955,38.0035 82.1415,37.2905 82.5405,36.8545 C82.6525,36.7255 82.9055,36.5685 83.2865,36.3945 C85.1745,35.5365 85.0575,33.7605 85.0575,31.9895 M72.3785,31.9945 L72.3785,19.6135 C72.3785,17.7295 72.1595,16.1105 70.0305,15.5885 C69.6995,15.4695 69.3285,15.5695 69.1055,15.2415 C68.9125,14.9715 68.9515,14.5925 69.1785,14.3555 C69.4205,14.1235 69.7405,14.1375 70.0475,14.1935 C72.7585,14.4975 75.6055,14.5485 78.3095,14.1595 C78.5615,14.1595 78.8125,14.0925 79.0655,14.0925 C79.4865,14.0925 79.9345,14.2805 79.9345,14.7645 C79.9345,15.2395 79.3505,15.4535 78.9985,15.5715 C77.4475,16.0735 77.4855,17.4375 77.4855,18.8055 L77.4855,32.9305 C77.4855,34.5665 77.7745,35.7305 79.4915,36.3105 C79.8555,36.4255 80.3275,36.4565 80.6235,36.6975 C80.9365,36.9635 80.9185,37.4845 80.6575,37.7795 C80.4045,38.0645 80.0515,38.0115 79.7105,37.9805 C78.2525,37.8445 76.8095,37.6445 75.3385,37.6445 C74.0935,37.6445 72.8425,37.7235 71.6105,37.9085 C71.1295,37.9615 70.2865,38.1755 69.9015,37.7905 C69.6435,37.5315 69.6115,37.1285 69.8625,36.8545 C69.9745,36.7195 70.2215,36.5685 70.5905,36.3945 C72.4895,35.5315 72.3785,33.7815 72.3785,31.9945 M46.1415,31.9945 L46.1415,19.6135 C46.1415,17.6295 45.9495,16.0435 43.6755,15.5715 C43.3585,15.4805 43.1165,15.5125 42.8905,15.2355 C42.6785,14.9485 42.6925,14.5435 42.9915,14.3165 C43.3745,14.0135 43.8215,14.1765 44.2525,14.1765 C45.5925,14.3045 46.8815,14.3725 48.1315,14.3725 C49.4205,14.3725 50.7655,14.2995 52.1665,14.1595 C52.6835,14.1115 53.7415,13.9495 53.7415,14.7645 C53.7415,15.4495 52.7985,15.5415 52.3405,15.7515 C51.2015,16.2985 51.2815,17.7495 51.2815,18.8055 L51.2815,24.5565 C51.2815,24.7385 51.3365,25.1625 51.5955,25.1625 C51.7615,25.1625 52.0515,24.8985 52.1665,24.7985 C54.4675,22.5925 57.7535,20.2125 59.7615,17.6965 C60.0535,17.2875 60.1995,16.9055 60.1995,16.5585 C60.1995,16.0535 59.8465,15.7285 59.1455,15.5885 C58.7145,15.5885 58.0805,15.3365 58.0805,14.8315 C58.0805,14.6025 58.1365,14.4395 58.2545,14.3495 C58.4895,14.1495 58.9595,14.1835 59.2575,14.1985 C61.4155,14.3205 63.5535,14.3725 65.7145,14.2435 C66.0575,14.1755 66.6405,14.1205 66.9365,14.3215 C67.1855,14.4955 67.1945,15.0745 67.0035,15.2915 C66.7275,15.5465 65.8785,15.7745 65.5185,15.9475 C64.3805,16.4525 62.9345,17.4775 61.1855,19.0185 C60.0265,19.9875 58.9145,21.0375 57.7835,22.0405 C57.0425,22.5885 57.0865,22.8655 57.5705,23.5535 L65.1085,34.4045 C65.6245,35.1265 66.2095,35.7835 67.0255,36.1645 C67.2485,36.2885 67.8045,36.3315 67.9395,36.5405 C68.1035,36.8095 68.0785,37.4845 67.8165,37.6835 C67.6765,37.7845 67.4015,37.8405 66.9925,37.8405 C66.2055,37.8405 65.4205,37.7395 64.6325,37.7395 C63.7475,37.7395 62.8655,37.8685 61.9875,37.8685 C61.6505,37.8685 61.2975,37.7005 60.9385,37.3645 C60.5745,37.0225 60.1035,36.4225 59.5265,35.5545 L53.7755,26.9165 C53.5615,26.5205 53.1925,26.2215 52.8055,26.6085 L51.7745,27.5775 C51.3845,27.9285 51.2815,28.1705 51.2815,28.6935 L51.2815,32.9305 C51.2815,34.7205 51.7335,35.8765 53.6465,36.3435 C53.9685,36.4525 54.3675,36.4845 54.6385,36.7145 C54.9575,36.9735 54.9185,37.4995 54.6505,37.7795 C54.3605,38.0795 53.9365,38.0135 53.5575,37.9865 C50.7785,37.7865 48.2325,37.4875 45.4185,37.9085 C45.0075,37.9515 44.5995,38.0035 44.1855,38.0035 C43.8115,38.0035 43.4795,37.6705 43.4795,37.2965 C43.4795,36.9885 43.7765,36.6865 44.3645,36.3775 C46.2475,35.4375 46.1415,33.8385 46.1415,31.9945" id="Fill-3" fill="#000000"></path>
                <polygon id="Fill-1" fill="#007B86" points="14.2231 37.861 37.9561 37.861 37.9561 14.188 33.2011 14.188 33.2011 18.931 28.4881 18.931 28.4881 23.674 23.7331 23.674 23.7331 28.375 18.9781 28.375 18.9781 33.118 14.2231 33.118"></polygon>
                <path d="M1.42108547e-14,0 L1.42108547e-14,47.305 L11.866,35.469 L7.112,35.469 L7.112,7.094 L35.558,7.094 L35.558,11.837 L47.425,0 L1.42108547e-14,0 Z M9.468,9.486 L9.468,33.118 L14.223,33.118 L14.223,28.375 L18.978,28.375 L18.978,23.674 L23.733,23.674 L23.733,18.931 L28.489,18.931 L28.489,14.188 L33.201,14.188 L33.201,9.486 L9.468,9.486 Z" id="Fill-2" fill="#DA242A"></path>
            </g>
        </g>
    </g>
</svg>